<mxfile host="app.diagrams.net" agent="Mozilla/5.0 (Windows NT 10.0; Win64; x64) AppleWebKit/537.36 (KHTML, like Gecko) Chrome/141.0.0.0 Safari/537.36 Edg/141.0.0.0" version="28.2.5">
  <diagram name="Page-1" id="hSHvdVfbZxq-006lwCOd">
    <mxGraphModel dx="2245" dy="794" grid="1" gridSize="10" guides="1" tooltips="1" connect="1" arrows="1" fold="1" page="1" pageScale="1" pageWidth="827" pageHeight="1169" math="0" shadow="0">
      <root>
        <mxCell id="0" />
        <mxCell id="1" parent="0" />
        <mxCell id="r0pP71fuE-R6v5kcMTjb-3" style="edgeStyle=orthogonalEdgeStyle;rounded=0;orthogonalLoop=1;jettySize=auto;html=1;" edge="1" parent="1" source="r0pP71fuE-R6v5kcMTjb-1" target="r0pP71fuE-R6v5kcMTjb-4">
          <mxGeometry relative="1" as="geometry">
            <mxPoint x="200" y="120" as="targetPoint" />
          </mxGeometry>
        </mxCell>
        <mxCell id="r0pP71fuE-R6v5kcMTjb-1" value="" style="shape=cylinder3;whiteSpace=wrap;html=1;boundedLbl=1;backgroundOutline=1;size=15;" vertex="1" parent="1">
          <mxGeometry x="80" y="80" width="60" height="80" as="geometry" />
        </mxCell>
        <mxCell id="r0pP71fuE-R6v5kcMTjb-2" value="TM36" style="text;html=1;align=center;verticalAlign=middle;whiteSpace=wrap;rounded=0;" vertex="1" parent="1">
          <mxGeometry x="80" y="105" width="60" height="30" as="geometry" />
        </mxCell>
        <mxCell id="r0pP71fuE-R6v5kcMTjb-8" style="edgeStyle=orthogonalEdgeStyle;rounded=0;orthogonalLoop=1;jettySize=auto;html=1;entryX=0;entryY=0.5;entryDx=0;entryDy=0;" edge="1" parent="1" source="r0pP71fuE-R6v5kcMTjb-4" target="r0pP71fuE-R6v5kcMTjb-7">
          <mxGeometry relative="1" as="geometry" />
        </mxCell>
        <mxCell id="r0pP71fuE-R6v5kcMTjb-14" style="edgeStyle=orthogonalEdgeStyle;rounded=0;orthogonalLoop=1;jettySize=auto;html=1;entryX=0.5;entryY=0;entryDx=0;entryDy=0;" edge="1" parent="1" source="r0pP71fuE-R6v5kcMTjb-4" target="r0pP71fuE-R6v5kcMTjb-13">
          <mxGeometry relative="1" as="geometry">
            <Array as="points">
              <mxPoint x="310" y="160" />
              <mxPoint x="185" y="160" />
            </Array>
          </mxGeometry>
        </mxCell>
        <mxCell id="r0pP71fuE-R6v5kcMTjb-4" value="ADC&lt;div&gt;value&lt;/div&gt;" style="rounded=1;whiteSpace=wrap;html=1;fillColor=#f8cecc;strokeColor=#b85450;" vertex="1" parent="1">
          <mxGeometry x="280" y="100" width="60" height="40" as="geometry" />
        </mxCell>
        <mxCell id="r0pP71fuE-R6v5kcMTjb-5" value="&lt;div style=&quot;font-family: Consolas, &amp;quot;Courier New&amp;quot;, monospace; font-size: 14px; line-height: 19px; white-space: pre;&quot;&gt;&lt;span style=&quot;background-color: rgb(255, 255, 255);&quot;&gt;&lt;font style=&quot;color: rgb(0, 0, 0);&quot;&gt;HAL_ADC_GetValue&lt;/font&gt;&lt;/span&gt;&lt;/div&gt;" style="text;html=1;align=center;verticalAlign=middle;whiteSpace=wrap;rounded=0;" vertex="1" parent="1">
          <mxGeometry x="180" y="90" width="60" height="30" as="geometry" />
        </mxCell>
        <mxCell id="r0pP71fuE-R6v5kcMTjb-11" style="edgeStyle=orthogonalEdgeStyle;rounded=0;orthogonalLoop=1;jettySize=auto;html=1;" edge="1" parent="1" source="r0pP71fuE-R6v5kcMTjb-7" target="r0pP71fuE-R6v5kcMTjb-10">
          <mxGeometry relative="1" as="geometry">
            <Array as="points">
              <mxPoint x="620" y="235" />
            </Array>
          </mxGeometry>
        </mxCell>
        <mxCell id="r0pP71fuE-R6v5kcMTjb-15" style="edgeStyle=orthogonalEdgeStyle;rounded=0;orthogonalLoop=1;jettySize=auto;html=1;entryX=1;entryY=0.5;entryDx=0;entryDy=0;" edge="1" parent="1" source="r0pP71fuE-R6v5kcMTjb-7" target="r0pP71fuE-R6v5kcMTjb-13">
          <mxGeometry relative="1" as="geometry">
            <Array as="points">
              <mxPoint x="620" y="160" />
              <mxPoint x="400" y="160" />
              <mxPoint x="400" y="225" />
            </Array>
          </mxGeometry>
        </mxCell>
        <mxCell id="r0pP71fuE-R6v5kcMTjb-7" value="voltage" style="rounded=1;whiteSpace=wrap;html=1;fillColor=#f8cecc;strokeColor=#b85450;" vertex="1" parent="1">
          <mxGeometry x="590" y="105" width="60" height="30" as="geometry" />
        </mxCell>
        <mxCell id="r0pP71fuE-R6v5kcMTjb-9" value="&lt;div style=&quot;color: rgb(204, 204, 204); background-color: rgb(31, 31, 31); font-family: Consolas, &amp;quot;Courier New&amp;quot;, monospace; font-size: 14px; line-height: 19px; white-space: pre;&quot;&gt;&lt;span style=&quot;color: rgb(156, 220, 254);&quot;&gt;adc_value&lt;/span&gt; &lt;span style=&quot;color: rgb(212, 212, 212);&quot;&gt;*&lt;/span&gt; (&lt;span style=&quot;color: rgb(181, 206, 168);&quot;&gt;3.3f&lt;/span&gt; &lt;span style=&quot;color: rgb(212, 212, 212);&quot;&gt;/&lt;/span&gt; &lt;span style=&quot;color: rgb(181, 206, 168);&quot;&gt;4095.0f&lt;/span&gt;)&lt;/div&gt;" style="text;html=1;align=center;verticalAlign=middle;whiteSpace=wrap;rounded=0;" vertex="1" parent="1">
          <mxGeometry x="430" y="90" width="60" height="30" as="geometry" />
        </mxCell>
        <mxCell id="r0pP71fuE-R6v5kcMTjb-16" style="edgeStyle=orthogonalEdgeStyle;rounded=0;orthogonalLoop=1;jettySize=auto;html=1;" edge="1" parent="1" source="r0pP71fuE-R6v5kcMTjb-10" target="r0pP71fuE-R6v5kcMTjb-13">
          <mxGeometry relative="1" as="geometry" />
        </mxCell>
        <mxCell id="r0pP71fuE-R6v5kcMTjb-10" value="temp" style="rounded=1;whiteSpace=wrap;html=1;fillColor=#f8cecc;strokeColor=#b85450;" vertex="1" parent="1">
          <mxGeometry x="430" y="220" width="60" height="30" as="geometry" />
        </mxCell>
        <mxCell id="r0pP71fuE-R6v5kcMTjb-12" value="&lt;div style=&quot;color: rgb(204, 204, 204); background-color: rgb(31, 31, 31); font-family: Consolas, &amp;quot;Courier New&amp;quot;, monospace; font-size: 14px; line-height: 19px; white-space: pre;&quot;&gt;(&lt;span style=&quot;color: #9cdcfe;&quot;&gt;voltage&lt;/span&gt; &lt;span style=&quot;color: #d4d4d4;&quot;&gt;-&lt;/span&gt; &lt;span style=&quot;color: #b5cea8;&quot;&gt;0.5&lt;/span&gt;) &lt;span style=&quot;color: #d4d4d4;&quot;&gt;*&lt;/span&gt; &lt;span style=&quot;color: #b5cea8;&quot;&gt;100.0&lt;/span&gt;&lt;/div&gt;" style="text;html=1;align=center;verticalAlign=middle;whiteSpace=wrap;rounded=0;" vertex="1" parent="1">
          <mxGeometry x="560" y="240" width="60" height="30" as="geometry" />
        </mxCell>
        <mxCell id="r0pP71fuE-R6v5kcMTjb-19" style="edgeStyle=orthogonalEdgeStyle;rounded=0;orthogonalLoop=1;jettySize=auto;html=1;" edge="1" parent="1" source="r0pP71fuE-R6v5kcMTjb-13" target="r0pP71fuE-R6v5kcMTjb-18">
          <mxGeometry relative="1" as="geometry" />
        </mxCell>
        <mxCell id="r0pP71fuE-R6v5kcMTjb-13" value="sprintf" style="rounded=0;whiteSpace=wrap;html=1;" vertex="1" parent="1">
          <mxGeometry x="160" y="210" width="50" height="30" as="geometry" />
        </mxCell>
        <mxCell id="r0pP71fuE-R6v5kcMTjb-17" value="&lt;div style=&quot;color: rgb(204, 204, 204); background-color: rgb(31, 31, 31); font-family: Consolas, &amp;quot;Courier New&amp;quot;, monospace; font-size: 14px; line-height: 19px; white-space: pre;&quot;&gt;(&lt;span style=&quot;color: rgb(156, 220, 254);&quot;&gt;transmit_buffer&lt;/span&gt;, &lt;span style=&quot;color: rgb(206, 145, 120);&quot;&gt;&quot;ADC Value: &lt;/span&gt;&lt;span style=&quot;color: rgb(156, 220, 254);&quot;&gt;%lu&lt;/span&gt;&lt;span style=&quot;color: rgb(206, 145, 120);&quot;&gt;, Voltage: &lt;/span&gt;&lt;span style=&quot;color: rgb(156, 220, 254);&quot;&gt;%.2f&lt;/span&gt;&lt;span style=&quot;color: rgb(206, 145, 120);&quot;&gt;, &lt;/span&gt;&lt;/div&gt;&lt;div style=&quot;color: rgb(204, 204, 204); background-color: rgb(31, 31, 31); font-family: Consolas, &amp;quot;Courier New&amp;quot;, monospace; font-size: 14px; line-height: 19px; white-space: pre;&quot;&gt;&lt;span style=&quot;color: rgb(206, 145, 120);&quot;&gt;temp: &lt;/span&gt;&lt;span style=&quot;color: rgb(156, 220, 254);&quot;&gt;%.2f&lt;/span&gt;&lt;span style=&quot;color: rgb(206, 145, 120);&quot;&gt; V&lt;/span&gt;&lt;span style=&quot;color: rgb(215, 186, 125);&quot;&gt;\r\n&lt;/span&gt;&lt;span style=&quot;color: rgb(206, 145, 120);&quot;&gt;&quot;&lt;/span&gt;, &lt;span style=&quot;color: rgb(156, 220, 254);&quot;&gt;adc_value&lt;/span&gt;, &lt;span style=&quot;color: rgb(156, 220, 254);&quot;&gt;voltage&lt;/span&gt;, &lt;span style=&quot;color: rgb(156, 220, 254);&quot;&gt;temp&lt;/span&gt;)&lt;/div&gt;" style="text;html=1;align=center;verticalAlign=middle;whiteSpace=wrap;rounded=0;" vertex="1" parent="1">
          <mxGeometry x="-60" y="215" width="40" height="20" as="geometry" />
        </mxCell>
        <mxCell id="r0pP71fuE-R6v5kcMTjb-18" value="HAL_UART_Transmit" style="rounded=0;whiteSpace=wrap;html=1;" vertex="1" parent="1">
          <mxGeometry x="127.5" y="310" width="115" height="30" as="geometry" />
        </mxCell>
        <mxCell id="r0pP71fuE-R6v5kcMTjb-20" value="&lt;div style=&quot;color: rgb(204, 204, 204); background-color: rgb(31, 31, 31); font-family: Consolas, &amp;quot;Courier New&amp;quot;, monospace; font-size: 14px; line-height: 19px; white-space: pre;&quot;&gt;(&lt;span style=&quot;color: #d4d4d4;&quot;&gt;&amp;amp;&lt;/span&gt;&lt;span style=&quot;color: #9cdcfe;&quot;&gt;huart3&lt;/span&gt;, (&lt;span style=&quot;color: #4ec9b0;&quot;&gt;uint8_t&lt;/span&gt;&lt;span style=&quot;color: #d4d4d4;&quot;&gt;*&lt;/span&gt;)&lt;span style=&quot;color: #9cdcfe;&quot;&gt;transmit_buffer&lt;/span&gt;, &lt;span style=&quot;color: #dcdcaa;&quot;&gt;strlen&lt;/span&gt;(&lt;span style=&quot;color: #9cdcfe;&quot;&gt;transmit_buffer&lt;/span&gt;), &lt;span style=&quot;color: #9cdcfe;&quot;&gt;timeout&lt;/span&gt;)&lt;/div&gt;" style="text;html=1;align=center;verticalAlign=middle;whiteSpace=wrap;rounded=0;" vertex="1" parent="1">
          <mxGeometry x="155" y="350" width="60" height="30" as="geometry" />
        </mxCell>
      </root>
    </mxGraphModel>
  </diagram>
</mxfile>
